<?xml version="1.0" encoding="UTF-8" standalone="no"?>
<!-- Created with Inkscape (http://www.inkscape.org/) -->

<svg
   width="165.39996mm"
   height="108.50269mm"
   viewBox="0 0 165.39996 108.50269"
   version="1.1"
   id="svg5219"
   inkscape:version="1.2 (dc2aeda, 2022-05-15)"
   sodipodi:docname="issue_79_bypassB.svg"
   xmlns:inkscape="http://www.inkscape.org/namespaces/inkscape"
   xmlns:sodipodi="http://sodipodi.sourceforge.net/DTD/sodipodi-0.dtd"
   xmlns="http://www.w3.org/2000/svg"
   xmlns:svg="http://www.w3.org/2000/svg"
   xmlns:rdf="http://www.w3.org/1999/02/22-rdf-syntax-ns#"
   xmlns:cc="http://creativecommons.org/ns#"
   xmlns:dc="http://purl.org/dc/elements/1.1/">
  <defs
     id="defs5213">
    <marker
       style="overflow:visible"
       id="Arrow1"
       refX="0"
       refY="0"
       orient="auto-start-reverse"
       inkscape:stockid="Arrow1"
       markerWidth="4.0606604"
       markerHeight="6.7071066"
       viewBox="0 0 4.0606602 6.7071068"
       inkscape:isstock="true"
       inkscape:collect="always"
       preserveAspectRatio="xMidYMid">
      <path
         style="fill:none;stroke:context-stroke;stroke-width:1;stroke-linecap:butt"
         d="M 3,-3 0,0 3,3"
         id="path5057"
         transform="rotate(180,0.125,0)"
         sodipodi:nodetypes="ccc" />
    </marker>
    <marker
       inkscape:stockid="Arrow2Send"
       orient="auto"
       refY="0"
       refX="0"
       id="marker2165"
       style="overflow:visible"
       inkscape:isstock="true">
      <path
         inkscape:connector-curvature="0"
         id="path2163"
         style="fill:#323232;fill-opacity:1;fill-rule:evenodd;stroke:#323232;stroke-width:0.625;stroke-linejoin:round;stroke-opacity:1"
         d="M 8.7185878,4.0337352 -2.2072895,0.01601326 8.7185884,-4.0017078 c -1.7454984,2.3720609 -1.7354408,5.6174519 -6e-7,8.035443 z"
         transform="matrix(-0.3,0,0,-0.3,0.69,0)" />
    </marker>
    <marker
       inkscape:isstock="true"
       style="overflow:visible"
       id="marker970"
       refX="0"
       refY="0"
       orient="auto"
       inkscape:stockid="Arrow2Send">
      <path
         transform="matrix(-0.3,0,0,-0.3,0.69,0)"
         d="M 8.7185878,4.0337352 -2.2072895,0.01601326 8.7185884,-4.0017078 c -1.7454984,2.3720609 -1.7354408,5.6174519 -6e-7,8.035443 z"
         style="fill:#323232;fill-opacity:1;fill-rule:evenodd;stroke:#323232;stroke-width:0.625;stroke-linejoin:round;stroke-opacity:1"
         id="path968"
         inkscape:connector-curvature="0" />
    </marker>
    <marker
       inkscape:isstock="true"
       style="overflow:visible"
       id="marker3480"
       refX="0"
       refY="0"
       orient="auto"
       inkscape:stockid="Arrow2Send">
      <path
         inkscape:connector-curvature="0"
         transform="matrix(-0.3,0,0,-0.3,0.69,0)"
         d="M 8.7185878,4.0337352 -2.2072895,0.01601326 8.7185884,-4.0017078 c -1.7454984,2.3720609 -1.7354408,5.6174519 -6e-7,8.035443 z"
         style="fill:#389615;fill-opacity:1;fill-rule:evenodd;stroke:#389615;stroke-width:0.625;stroke-linejoin:round;stroke-opacity:1"
         id="path3478" />
    </marker>
    <filter
       inkscape:collect="always"
       style="color-interpolation-filters:sRGB"
       id="filter921"
       x="-0.078481336"
       width="1.1569627"
       y="-0.12242809"
       height="1.2448562">
      <feGaussianBlur
         inkscape:collect="always"
         stdDeviation="2.8069261"
         id="feGaussianBlur923" />
    </filter>
    <filter
       inkscape:collect="always"
       style="color-interpolation-filters:sRGB"
       id="filter2579"
       x="-0.093299817"
       width="1.1865996"
       y="-0.1415284"
       height="1.2830568">
      <feGaussianBlur
         inkscape:collect="always"
         stdDeviation="1.474681"
         id="feGaussianBlur2577" />
    </filter>
  </defs>
  <sodipodi:namedview
     id="base"
     pagecolor="#ffffff"
     bordercolor="#666666"
     borderopacity="1.0"
     inkscape:pageopacity="0.0"
     inkscape:pageshadow="2"
     inkscape:zoom="1.4715206"
     inkscape:cx="199.45355"
     inkscape:cy="55.045103"
     inkscape:document-units="mm"
     inkscape:current-layer="layer1"
     showgrid="false"
     fit-margin-top="0"
     fit-margin-left="0"
     fit-margin-right="0"
     fit-margin-bottom="0"
     inkscape:window-width="1920"
     inkscape:window-height="1051"
     inkscape:window-x="1920"
     inkscape:window-y="0"
     inkscape:window-maximized="1"
     inkscape:showpageshadow="2"
     inkscape:pagecheckerboard="0"
     inkscape:deskcolor="#d1d1d1" />
  <metadata
     id="metadata5216">
    <rdf:RDF>
      <cc:Work
         rdf:about="">
        <dc:format>image/svg+xml</dc:format>
        <dc:type
           rdf:resource="http://purl.org/dc/dcmitype/StillImage" />
        <dc:title />
      </cc:Work>
    </rdf:RDF>
  </metadata>
  <g
     inkscape:label="Layer 1"
     inkscape:groupmode="layer"
     id="layer1"
     transform="translate(-104.13465,-97.98032)">
    <path
       style="display:inline;fill:#e6f1ba;fill-opacity:1;stroke:none;stroke-width:1;stroke-linecap:butt;stroke-linejoin:miter;stroke-miterlimit:4;stroke-dasharray:none;stroke-dashoffset:0;stroke-opacity:1;filter:url(#filter921)"
       d="m 74.860857,102.58275 c 5.408407,28.89604 11.025323,31.43045 41.272323,30.0921 30.00853,-1.3278 43.18454,-20.32238 43.37277,-25.41889 1.32983,-36.006237 -51.02679,-28.726199 -51.02679,-28.726199 -30.58783,0.736416 -38.030925,0.477232 -33.618303,24.052989 z"
       id="path913"
       inkscape:connector-curvature="0"
       sodipodi:nodetypes="ssscs"
       transform="matrix(1.5566076,0,0,1.3773087,5.315138,7.5353481)" />
    <path
       sodipodi:nodetypes="csssscccasccsccsccccs"
       inkscape:connector-curvature="0"
       d="m 256.69594,146.95427 c -0.71972,-0.076 -5.15074,1.31343 -5.83617,1.24904 -17.97717,-1.68818 -24.42481,0.28591 -33.20881,-11.99361 -6.43869,-9.00093 -29.00224,-8.15556 -39.99775,-6.90158 -11.39297,1.29931 -21.2622,5.17405 -32.88785,10.19059 -3.56665,1.53904 -9.53283,-16.79466 -17.37034,-21.77082 l -7.73843,7.43213 c 8.74615,4.16773 12.55032,14.76533 18.99157,22.00243 6.14012,35.06715 48.1359,24.06604 73.48429,21.27944 7.84355,-0.86226 13.40077,-10.91487 20.7648,-11.36688 6.5376,-0.40127 18.17822,-1.93602 24.07406,0.91712 m -64.33519,-3.09468 c -4.54995,0.96744 -16.1584,12.15049 -7.92643,11.6931 2.45651,-0.1365 14.48843,-3.10729 22.66565,-4.15973 17.9914,-6.38376 -2.75159,-10.77972 -14.73922,-7.53337 z m -35.17271,-12.08441 c -5.11339,2.30543 -13.40864,12.38195 -1.0071,15.712 4.79363,1.22969 12.70665,5.02414 15.85613,2.23368 4.16178,-3.68733 15.17085,-11.57439 19.83237,-12.41205 13.82791,-0.94232 28.04218,4.64269 22.43637,-5.89568 -4.22108,-9.70341 -39.76072,-7.46359 -57.11777,0.36205 z"
       style="fill:#a4efef;fill-opacity:1;fill-rule:evenodd;stroke:none;stroke-width:0.866558;stroke-linecap:butt;stroke-linejoin:miter;stroke-miterlimit:4;stroke-dasharray:none;stroke-dashoffset:0;stroke-opacity:1"
       id="path944" />
    <path
       id="path902"
       style="fill:none;fill-opacity:1;stroke:#323232;stroke-width:0.866558;stroke-linecap:butt;stroke-linejoin:miter;stroke-miterlimit:4;stroke-dasharray:none;stroke-dashoffset:0;stroke-opacity:1"
       d="m 127.39502,117.72789 c 7.83751,4.97616 13.80369,23.30986 17.37034,21.77082 11.62565,-5.01654 21.49488,-8.89128 32.88785,-10.19059 10.99551,-1.25398 33.55906,-2.09935 39.99775,6.90158 8.784,12.27952 15.23164,10.30543 33.20881,11.99361 0.68543,0.0644 5.11645,-1.32505 5.83617,-1.24904 m -64.05982,7.94318 c -4.54995,0.96744 -16.1584,12.15049 -7.92643,11.6931 2.45651,-0.1365 14.48843,-3.10729 22.66565,-4.15973 17.9914,-6.38376 -2.75159,-10.77972 -14.73922,-7.53337 z m -35.17271,-12.08441 c -5.11339,2.30543 -13.40864,12.38195 -1.0071,15.712 4.79363,1.22969 12.70665,5.02414 15.85613,2.23368 4.16178,-3.68733 15.17085,-11.57439 19.83237,-12.41205 13.82791,-0.94232 28.04218,4.64269 22.43637,-5.89568 -4.22108,-9.70341 -39.76072,-7.46359 -57.11777,0.36205 z m -37.80682,-17.65302 c 8.74615,4.16773 12.55032,14.76533 18.99157,22.00243 6.14012,35.06715 48.1359,24.06604 73.48429,21.27944 7.84355,-0.86226 13.40077,-10.91487 20.7648,-11.36688 6.5376,-0.40127 18.17822,-1.93602 24.07406,0.91712"
       inkscape:connector-curvature="0"
       sodipodi:nodetypes="cssssccsccsccccsccasc" />
    <path
       sodipodi:nodetypes="cc"
       inkscape:connector-curvature="0"
       id="path2071"
       d="m 137.17684,129.69429 -7.68355,5.33781"
       style="display:inline;fill:none;fill-opacity:1;stroke:#ff0000;stroke-width:0.866558;stroke-linecap:round;stroke-linejoin:miter;stroke-miterlimit:4;stroke-dasharray:none;stroke-dashoffset:0;stroke-opacity:1" />
    <path
       style="display:inline;fill:none;fill-opacity:1;stroke:#ff0000;stroke-width:0.866558;stroke-linecap:round;stroke-linejoin:miter;stroke-miterlimit:4;stroke-dasharray:none;stroke-dashoffset:0;stroke-opacity:1"
       d="m 153.02452,135.70971 3.30403,8.23819"
       id="path907"
       inkscape:connector-curvature="0"
       sodipodi:nodetypes="cc" />
    <path
       style="display:inline;fill:none;fill-opacity:1;stroke:#ff0000;stroke-width:0.866558;stroke-linecap:round;stroke-linejoin:miter;stroke-miterlimit:4;stroke-dasharray:none;stroke-dashoffset:0;stroke-opacity:1"
       d="m 184.08749,128.30966 -0.32335,8.4561"
       id="path907-6"
       inkscape:connector-curvature="0"
       sodipodi:nodetypes="cc" />
    <path
       sodipodi:nodetypes="cc"
       inkscape:connector-curvature="0"
       id="path909"
       d="m 216.7489,134.12142 -4.58286,6.32234"
       style="display:inline;fill:none;fill-opacity:1;stroke:#ff0000;stroke-width:0.866558;stroke-linecap:round;stroke-linejoin:miter;stroke-miterlimit:4;stroke-dasharray:none;stroke-dashoffset:0;stroke-opacity:1" />
    <path
       style="display:inline;fill:none;fill-opacity:1;stroke:#ff0000;stroke-width:0.866558;stroke-linecap:round;stroke-linejoin:miter;stroke-miterlimit:4;stroke-dasharray:none;stroke-dashoffset:0;stroke-opacity:1"
       d="m 151.63761,155.46436 -6.79118,7.15755"
       id="path912"
       inkscape:connector-curvature="0"
       sodipodi:nodetypes="cc" />
    <path
       style="display:inline;fill:none;fill-opacity:1;stroke:#ff0000;stroke-width:0.866558;stroke-linecap:round;stroke-linejoin:miter;stroke-miterlimit:4;stroke-dasharray:none;stroke-dashoffset:0;stroke-opacity:1"
       d="m 170.85252,161.08959 3.88346,11.88017"
       id="path912-7"
       inkscape:connector-curvature="0"
       sodipodi:nodetypes="cc" />
    <path
       sodipodi:nodetypes="cc"
       inkscape:connector-curvature="0"
       id="path914"
       d="m 206.40475,148.14999 -0.67799,6.50652"
       style="display:inline;fill:none;fill-opacity:1;stroke:#ff0000;stroke-width:0.866558;stroke-linecap:round;stroke-linejoin:miter;stroke-miterlimit:4;stroke-dasharray:none;stroke-dashoffset:0;stroke-opacity:1" />
    <path
       style="display:inline;fill:none;fill-opacity:1;stroke:#ff0000;stroke-width:0.866558;stroke-linecap:round;stroke-linejoin:miter;stroke-miterlimit:4;stroke-dasharray:none;stroke-dashoffset:0;stroke-opacity:1"
       d="m 210.08301,160.74811 1.99044,8.23341"
       id="path916"
       inkscape:connector-curvature="0"
       sodipodi:nodetypes="cc" />
    <path
       style="display:inline;fill:none;fill-opacity:1;stroke:#ff0000;stroke-width:0.866558;stroke-linecap:round;stroke-linejoin:miter;stroke-miterlimit:4;stroke-dasharray:none;stroke-dashoffset:0;stroke-opacity:1"
       d="m 246.77034,147.34021 0.0467,9.49106"
       id="path918"
       inkscape:connector-curvature="0"
       sodipodi:nodetypes="cc" />
    <path
       style="font-variation-settings:normal;opacity:0.655337;fill:#00ff00;fill-opacity:1;stroke:none;stroke-width:1.68969;stroke-linecap:butt;stroke-linejoin:miter;stroke-miterlimit:4;stroke-dasharray:none;stroke-dashoffset:0;stroke-opacity:1;filter:url(#filter2579);stop-color:#000000"
       d="m 120.67582,111.6563 c 3.41388,0.13321 4.98532,4.7205 7.03504,7.45381 2.41396,3.21904 11.81228,13.8371 10.92421,17.76148 -0.51933,2.29494 7.421,11.04613 6.35028,14.21303 -1.21048,3.58028 -11.54511,1.43688 -14.17355,1.02765 -3.78221,-0.58885 -13.7727,-20.54382 -16.54683,-23.18126 -2.10209,-1.99852 -6.92755,-2.13268 -7.10181,-5.02794 -0.36522,-6.0679 7.4384,-12.48378 13.51266,-12.24677 z"
       id="path656"
       sodipodi:nodetypes="ssssssss"
       transform="matrix(0.86655795,0,0,0.86655795,24.931595,19.018244)" />
    <path
       style="font-variation-settings:normal;opacity:0.655337;mix-blend-mode:normal;fill:#ff6600;fill-opacity:1;stroke:none;stroke-width:1.68969;stroke-linecap:butt;stroke-linejoin:miter;stroke-miterlimit:4;stroke-dasharray:none;stroke-dashoffset:0;stroke-opacity:1;filter:url(#filter2579);stop-color:#000000"
       d="m 141.89723,134.10179 c 3.03097,-7.49399 15.1945,-5.66157 23.07647,-7.45634 6.34106,-1.44389 12.83643,-2.31094 19.33194,-2.63071 10.20321,-0.50229 20.91928,-2.05457 30.62588,1.12974 4.55784,1.49523 8.71707,4.50287 11.90038,8.09121 1.18611,1.33702 2.98325,3.05139 2.46477,4.76184 -1.39783,4.61141 -8.01725,8.29651 -12.65473,6.98776 -1.54302,-0.43546 -1.16545,-3.12958 -2.37389,-4.18324 -2.5544,-2.22723 -6.09943,-3.21707 -9.44359,-3.76676 -6.35318,-1.04429 -12.8855,0.35235 -19.28745,1.03672 -6.49088,0.69388 -12.93563,1.8208 -19.33566,3.10636 -2.9199,0.58652 -5.92434,0.98074 -8.68457,2.09921 -2.92822,1.18654 -5.12313,5.67014 -8.16458,4.81463 -5.08683,-1.43084 -9.43628,-9.09169 -7.45497,-13.99042 z"
       id="path2480"
       sodipodi:nodetypes="ssssssssssssss"
       transform="matrix(0.86655795,0,0,0.86655795,24.931595,19.018244)" />
    <path
       id="path2784"
       style="font-variation-settings:normal;opacity:0.655337;fill:#0000ff;fill-opacity:1;stroke:none;stroke-width:1.68969;stroke-linecap:butt;stroke-linejoin:miter;stroke-miterlimit:4;stroke-dasharray:none;stroke-dashoffset:0;stroke-opacity:1;filter:url(#filter2579);stop-color:#000000"
       d="m 199.565,146.03268 c -3.37942,-0.0349 -6.7208,0.22045 -9.90844,1.22732 -7.94024,2.50807 -12.93731,11.33049 -20.94497,13.61416 -4.21539,1.20216 -9.01979,1.20244 -13.14752,-0.27286 -3.6402,-1.30104 -5.25886,-6.99477 -9.12089,-7.16338 -2.72476,-0.11896 -11.80889,-0.97236 -14.39839,0.67224 -2.4083,1.52951 1.59306,5.46031 1.17646,7.96237 -0.69189,4.15548 4.54364,7.25898 7.77162,9.9658 2.31337,1.93989 5.14899,3.25878 8.00416,4.24005 8.15249,2.80185 16.85219,4.17806 25.46666,4.50102 14.32686,0.53712 29.02526,-0.30348 42.79584,-4.29328 3.93371,-1.13973 9.67585,-1.61961 10.98744,-5.4994 2.79632,-8.27175 -4.41035,-18.44429 -11.50627,-23.53242 -1.92274,-1.3787 -4.67595,-0.79742 -7.03937,-0.90692 -3.33929,-0.15471 -6.75691,-0.47976 -10.13633,-0.5147 z m 11.68042,11.78843 c 1.74388,0.01 3.16656,0.36689 3.33727,1.81333 0.42589,3.60861 -6.38137,3.91914 -9.98699,4.36976 -5.86486,0.73298 -14.4521,4.50052 -18.67121,2.96054 -0.83916,-0.30629 0.72081,-1.67458 1.33377,-2.32441 2.31359,-2.45274 5.28503,-4.41604 8.46511,-5.53661 3.24052,-1.14187 6.82465,-1.14823 10.25778,-1.01234 1.45533,0.0576 3.5204,-0.27998 5.26427,-0.27027 z"
       sodipodi:nodetypes="sssssssssssssssssssssss"
       transform="matrix(0.86655795,0,0,0.86655795,24.931595,19.018244)" />
    <path
       style="display:inline;fill:#ffffff;fill-opacity:1;fill-rule:evenodd;stroke:#000000;stroke-width:0.866558;stroke-linecap:butt;stroke-linejoin:miter;stroke-miterlimit:4;stroke-dasharray:none;stroke-dashoffset:0;stroke-opacity:1"
       d="m 193.00044,169.30657 h 3.58987 c 0.89816,0 1.62124,0.72308 1.62124,1.62124 v 3.58986 c 0,0.89817 -0.72308,1.62124 -1.62124,1.62124 h -3.58987 c -0.89816,0 -1.62123,-0.72307 -1.62123,-1.62124 v -3.58986 c 0,-0.89816 0.72307,-1.62124 1.62123,-1.62124 z"
       id="rect920" />
    <text
       xml:space="preserve"
       style="font-size:6.05693px;line-height:1.25;font-family:'Titillium Web';-inkscape-font-specification:'Titillium Web';letter-spacing:0px;stroke-width:0.412971"
       x="192.99895"
       y="174.83827"
       id="text4024"><tspan
         sodipodi:role="line"
         id="tspan4022"
         style="stroke-width:0.412971"
         x="192.99895"
         y="174.83827">C</tspan></text>
    <path
       style="display:inline;fill:#ffffff;fill-opacity:1;fill-rule:evenodd;stroke:#000000;stroke-width:0.866558;stroke-linecap:butt;stroke-linejoin:miter;stroke-miterlimit:4;stroke-dasharray:none;stroke-dashoffset:0;stroke-opacity:1"
       d="m 120.36026,131.71021 h 3.58987 c 0.89816,0 1.62124,0.72307 1.62124,1.62124 v 3.58986 c 0,0.89817 -0.72308,1.62123 -1.62124,1.62123 h -3.58987 c -0.89816,0 -1.62124,-0.72306 -1.62124,-1.62123 v -3.58986 c 0,-0.89817 0.72308,-1.62124 1.62124,-1.62124 z"
       id="path4026" />
    <text
       xml:space="preserve"
       style="font-size:6.05693px;line-height:1.25;font-family:'Titillium Web';-inkscape-font-specification:'Titillium Web';letter-spacing:0px;stroke-width:0.412971"
       x="120.35877"
       y="137.24191"
       id="text4030"><tspan
         sodipodi:role="line"
         id="tspan4028"
         style="stroke-width:0.412971"
         x="120.35877"
         y="137.24191">A</tspan></text>
    <text
       xml:space="preserve"
       style="font-size:6.05693px;line-height:1.25;font-family:'Titillium Web';-inkscape-font-specification:'Titillium Web';letter-spacing:0px;stroke-width:0.412971"
       x="118.95341"
       y="109.07727"
       id="text4030-7"><tspan
         sodipodi:role="line"
         id="tspan4028-5"
         style="stroke-width:0.412971"
         x="118.95341"
         y="109.07727">1) Bypassing section B:</tspan></text>
    <path
       style="display:inline;fill:#ffffff;fill-opacity:1;fill-rule:evenodd;stroke:#000000;stroke-width:0.866558;stroke-linecap:butt;stroke-linejoin:miter;stroke-miterlimit:4;stroke-dasharray:none;stroke-dashoffset:0;stroke-opacity:1"
       d="m 167.01988,124.45588 h 3.58987 c 0.89816,0 1.62124,0.72308 1.62124,1.62124 v 3.58986 c 0,0.89817 -0.72308,1.62123 -1.62124,1.62123 h -3.58987 c -0.89816,0 -1.62123,-0.72306 -1.62123,-1.62123 v -3.58986 c 0,-0.89816 0.72307,-1.62124 1.62123,-1.62124 z"
       id="path4026-6" />
    <text
       xml:space="preserve"
       style="font-size:6.05693px;line-height:1.25;font-family:'Titillium Web';-inkscape-font-specification:'Titillium Web';letter-spacing:0px;stroke-width:0.412971"
       x="167.01839"
       y="129.98758"
       id="text4030-1"><tspan
         sodipodi:role="line"
         id="tspan4028-8"
         style="stroke-width:0.412971"
         x="167.01839"
         y="129.98758">B</tspan></text>
    <path
       style="display:inline;fill:none;fill-opacity:1;stroke:#ff0000;stroke-width:0.866558;stroke-linecap:round;stroke-linejoin:miter;stroke-miterlimit:4;stroke-dasharray:none;stroke-dashoffset:0;stroke-opacity:1"
       d="m 228.6867,147.34021 0.0467,9.49106"
       id="path4577"
       inkscape:connector-curvature="0"
       sodipodi:nodetypes="cc" />
    <path
       style="font-variation-settings:normal;opacity:0.655337;fill:#ffff00;fill-opacity:1;stroke:none;stroke-width:1.68969;stroke-linecap:butt;stroke-linejoin:miter;stroke-miterlimit:4;stroke-dasharray:none;stroke-dashoffset:0;stroke-opacity:1;filter:url(#filter2579);stop-color:#000000"
       d="m 269.48055,144.97103 -8.52298,0.79993 -30.22096,-6.49938 -11.91723,7.03821 10.50374,22.93732 32.11247,-8.72059 7.90905,2.23224 z"
       id="path3675"
       sodipodi:nodetypes="cccccccc"
       transform="matrix(0.86655795,0,0,0.86655795,24.931595,19.018244)" />
    <path
       style="display:inline;fill:#ffffff;fill-opacity:1;fill-rule:evenodd;stroke:#000000;stroke-width:0.866558;stroke-linecap:butt;stroke-linejoin:miter;stroke-miterlimit:4;stroke-dasharray:none;stroke-dashoffset:0;stroke-opacity:1"
       d="m 245.42236,136.50913 h 3.58987 c 0.89817,0 1.62124,0.72307 1.62124,1.62124 v 3.58986 c 0,0.89817 -0.72307,1.62123 -1.62124,1.62123 h -3.58987 c -0.89816,0 -1.62123,-0.72306 -1.62123,-1.62123 v -3.58986 c 0,-0.89817 0.72307,-1.62124 1.62123,-1.62124 z"
       id="path4026-6-7" />
    <text
       xml:space="preserve"
       style="font-size:6.05693px;line-height:1.25;font-family:'Titillium Web';-inkscape-font-specification:'Titillium Web';letter-spacing:0px;stroke-width:0.412971"
       x="245.4209"
       y="142.04083"
       id="text4030-1-9"><tspan
         sodipodi:role="line"
         id="tspan4028-8-2"
         style="stroke-width:0.412971"
         x="245.4209"
         y="142.04083">D</tspan></text>
    <text
       xml:space="preserve"
       style="font-style:normal;font-weight:normal;font-size:10.5833px;line-height:1.25;font-family:sans-serif;letter-spacing:0px;word-spacing:0px;display:inline;fill:#000000;fill-opacity:1;stroke:none;stroke-width:0.264583"
       x="320.6709"
       y="103.75063"
       id="text2229" />
    <path
       style="font-variation-settings:normal;opacity:1;vector-effect:none;fill:none;fill-opacity:1;stroke:#ff0000;stroke-width:1.5;stroke-linecap:butt;stroke-linejoin:miter;stroke-miterlimit:4;stroke-dasharray:none;stroke-dashoffset:0;stroke-opacity:1;-inkscape-stroke:none;marker-end:url(#Arrow1);stop-color:#000000;stop-opacity:1"
       d="m 137.28018,140.29844 c 7.7217,5.25268 5.94081,11.35776 9.85359,16.25411 4.28591,5.36328 10.78124,9.11427 17.95507,10.30991"
       id="path5449"
       sodipodi:nodetypes="csc" />
  </g>
</svg>
