<?xml version="1.0" encoding="UTF-8" standalone="no"?>
<!-- Created with Inkscape (http://www.inkscape.org/) -->

<svg
   width="165.39996mm"
   height="108.50269mm"
   viewBox="0 0 165.39996 108.50269"
   version="1.1"
   id="svg5219"
   inkscape:version="1.2 (dc2aeda, 2022-05-15)"
   sodipodi:docname="issue_79.svg"
   xmlns:inkscape="http://www.inkscape.org/namespaces/inkscape"
   xmlns:sodipodi="http://sodipodi.sourceforge.net/DTD/sodipodi-0.dtd"
   xmlns="http://www.w3.org/2000/svg"
   xmlns:svg="http://www.w3.org/2000/svg"
   xmlns:rdf="http://www.w3.org/1999/02/22-rdf-syntax-ns#"
   xmlns:cc="http://creativecommons.org/ns#"
   xmlns:dc="http://purl.org/dc/elements/1.1/">
  <defs
     id="defs5213">
    <marker
       inkscape:stockid="Arrow2Send"
       orient="auto"
       refY="0"
       refX="0"
       id="marker2165"
       style="overflow:visible"
       inkscape:isstock="true">
      <path
         inkscape:connector-curvature="0"
         id="path2163"
         style="fill:#323232;fill-opacity:1;fill-rule:evenodd;stroke:#323232;stroke-width:0.625;stroke-linejoin:round;stroke-opacity:1"
         d="M 8.7185878,4.0337352 -2.2072895,0.01601326 8.7185884,-4.0017078 c -1.7454984,2.3720609 -1.7354408,5.6174519 -6e-7,8.035443 z"
         transform="matrix(-0.3,0,0,-0.3,0.69,0)" />
    </marker>
    <marker
       inkscape:isstock="true"
       style="overflow:visible"
       id="marker970"
       refX="0"
       refY="0"
       orient="auto"
       inkscape:stockid="Arrow2Send">
      <path
         transform="matrix(-0.3,0,0,-0.3,0.69,0)"
         d="M 8.7185878,4.0337352 -2.2072895,0.01601326 8.7185884,-4.0017078 c -1.7454984,2.3720609 -1.7354408,5.6174519 -6e-7,8.035443 z"
         style="fill:#323232;fill-opacity:1;fill-rule:evenodd;stroke:#323232;stroke-width:0.625;stroke-linejoin:round;stroke-opacity:1"
         id="path968"
         inkscape:connector-curvature="0" />
    </marker>
    <marker
       inkscape:isstock="true"
       style="overflow:visible"
       id="marker3480"
       refX="0"
       refY="0"
       orient="auto"
       inkscape:stockid="Arrow2Send">
      <path
         inkscape:connector-curvature="0"
         transform="matrix(-0.3,0,0,-0.3,0.69,0)"
         d="M 8.7185878,4.0337352 -2.2072895,0.01601326 8.7185884,-4.0017078 c -1.7454984,2.3720609 -1.7354408,5.6174519 -6e-7,8.035443 z"
         style="fill:#389615;fill-opacity:1;fill-rule:evenodd;stroke:#389615;stroke-width:0.625;stroke-linejoin:round;stroke-opacity:1"
         id="path3478" />
    </marker>
    <filter
       inkscape:collect="always"
       style="color-interpolation-filters:sRGB"
       id="filter921"
       x="-0.078481336"
       width="1.1569627"
       y="-0.12242809"
       height="1.2448562">
      <feGaussianBlur
         inkscape:collect="always"
         stdDeviation="2.8069261"
         id="feGaussianBlur923" />
    </filter>
    <filter
       inkscape:collect="always"
       style="color-interpolation-filters:sRGB"
       id="filter2579"
       x="-0.093299817"
       width="1.1865996"
       y="-0.1415284"
       height="1.2830568">
      <feGaussianBlur
         inkscape:collect="always"
         stdDeviation="1.474681"
         id="feGaussianBlur2577" />
    </filter>
  </defs>
  <sodipodi:namedview
     id="base"
     pagecolor="#ffffff"
     bordercolor="#666666"
     borderopacity="1.0"
     inkscape:pageopacity="0.0"
     inkscape:pageshadow="2"
     inkscape:zoom="0.78722193"
     inkscape:cx="107.97463"
     inkscape:cy="243.89564"
     inkscape:document-units="mm"
     inkscape:current-layer="layer1"
     showgrid="false"
     fit-margin-top="0"
     fit-margin-left="0"
     fit-margin-right="0"
     fit-margin-bottom="0"
     inkscape:window-width="1920"
     inkscape:window-height="1007"
     inkscape:window-x="0"
     inkscape:window-y="0"
     inkscape:window-maximized="1"
     inkscape:showpageshadow="2"
     inkscape:pagecheckerboard="0"
     inkscape:deskcolor="#d1d1d1" />
  <metadata
     id="metadata5216">
    <rdf:RDF>
      <cc:Work
         rdf:about="">
        <dc:format>image/svg+xml</dc:format>
        <dc:type
           rdf:resource="http://purl.org/dc/dcmitype/StillImage" />
        <dc:title />
      </cc:Work>
    </rdf:RDF>
  </metadata>
  <g
     inkscape:label="Layer 1"
     inkscape:groupmode="layer"
     id="layer1"
     transform="translate(-104.13465,-97.98032)">
    <path
       style="display:inline;opacity:1;vector-effect:none;fill:#e6f1ba;fill-opacity:1;stroke:none;stroke-width:1;stroke-linecap:butt;stroke-linejoin:miter;stroke-miterlimit:4;stroke-dasharray:none;stroke-dashoffset:0;stroke-opacity:1;filter:url(#filter921)"
       d="m 74.860857,102.58275 c 5.408407,28.89604 11.025323,31.43045 41.272323,30.0921 30.00853,-1.3278 43.18454,-20.32238 43.37277,-25.41889 1.32983,-36.006237 -51.02679,-28.726199 -51.02679,-28.726199 -30.58783,0.736416 -38.030925,0.477232 -33.618303,24.052989 z"
       id="path913"
       inkscape:connector-curvature="0"
       sodipodi:nodetypes="ssscs"
       transform="matrix(1.796311,0,0,1.5894017,-22.637213,-13.251157)" />
    <path
       sodipodi:nodetypes="csssscccasccsccsccccs"
       inkscape:connector-curvature="0"
       d="m 267.45395,147.63702 c -0.83055,-0.0877 -5.94391,1.51568 -6.73489,1.44138 -20.74549,-1.94815 -28.18601,0.32993 -38.32266,-13.84052 -7.43019,-10.38699 -33.46833,-9.41144 -46.15704,-7.96436 -13.14739,1.49939 -24.53639,5.97081 -37.95228,11.75985 -4.11589,1.77603 -11.00081,-19.38089 -20.04522,-25.12333 l -8.93008,8.57661 c 10.09298,4.80952 14.48296,17.03906 21.9161,25.3906 7.08565,40.46717 55.54839,27.772 84.80021,24.55628 9.05138,-0.99504 15.46436,-12.59566 23.96238,-13.11727 7.54433,-0.46307 20.97751,-2.23415 27.78125,1.05834 m -74.24222,-3.57123 c -5.25061,1.11642 -18.64665,14.02156 -9.14703,13.49373 2.83479,-0.15751 16.71951,-3.58578 26.15595,-4.80029 20.76191,-7.3668 -3.17531,-12.4397 -17.00892,-8.69344 z m -40.58899,-13.9453 c -5.90081,2.66045 -15.47345,14.28866 -1.16219,18.13151 5.53181,1.41905 14.66336,5.79781 18.29784,2.57765 4.80265,-4.25515 17.50702,-13.35674 22.88637,-14.3234 15.95728,-1.08743 32.36042,5.35763 25.89137,-6.80356 -4.87109,-11.19765 -45.88351,-8.61291 -65.91339,0.4178 z"
       style="opacity:1;vector-effect:none;fill:#a4efef;fill-opacity:1;fill-rule:evenodd;stroke:none;stroke-width:1;stroke-linecap:butt;stroke-linejoin:miter;stroke-miterlimit:4;stroke-dasharray:none;stroke-dashoffset:0;stroke-opacity:1"
       id="path944" />
    <path
       id="path902"
       style="opacity:1;vector-effect:none;fill:none;fill-opacity:1;stroke:#323232;stroke-width:1;stroke-linecap:butt;stroke-linejoin:miter;stroke-miterlimit:4;stroke-dasharray:none;stroke-dashoffset:0;stroke-opacity:1"
       d="m 118.24186,113.91004 c 9.04441,5.74244 15.92933,26.89936 20.04522,25.12333 13.41589,-5.78904 24.80489,-10.26046 37.95228,-11.75985 12.68871,-1.44708 38.72685,-2.42263 46.15704,7.96436 10.13665,14.17045 17.57717,11.89237 38.32266,13.84052 0.79098,0.0743 5.90434,-1.5291 6.73489,-1.44138 m -73.92445,9.16635 c -5.25061,1.11642 -18.64665,14.02156 -9.14703,13.49373 2.83479,-0.15751 16.71951,-3.58578 26.15595,-4.80029 20.76191,-7.3668 -3.17531,-12.4397 -17.00892,-8.69344 z m -40.58899,-13.9453 c -5.90081,2.66045 -15.47345,14.28866 -1.16219,18.13151 5.53181,1.41905 14.66336,5.79781 18.29784,2.57765 4.80265,-4.25515 17.50702,-13.35674 22.88637,-14.3234 15.95728,-1.08743 32.36042,5.35763 25.89137,-6.80356 -4.87109,-11.19765 -45.88351,-8.61291 -65.91339,0.4178 z m -43.62873,-20.37142 c 10.09298,4.80952 14.48296,17.03906 21.9161,25.3906 7.08565,40.46717 55.54839,27.772 84.80021,24.55628 9.05138,-0.99504 15.46436,-12.59566 23.96238,-13.11727 7.54433,-0.46307 20.97751,-2.23415 27.78125,1.05834"
       inkscape:connector-curvature="0"
       sodipodi:nodetypes="cssssccsccsccccsccasc" />
    <path
       sodipodi:nodetypes="cc"
       inkscape:connector-curvature="0"
       id="path2071"
       d="m 129.52999,127.71916 -8.86674,6.15978"
       style="display:inline;opacity:1;fill:none;fill-opacity:1;stroke:#ff0000;stroke-width:1;stroke-linecap:round;stroke-linejoin:miter;stroke-miterlimit:4;stroke-dasharray:none;stroke-dashoffset:0;stroke-opacity:1" />
    <path
       style="display:inline;opacity:1;vector-effect:none;fill:none;fill-opacity:1;stroke:#ff0000;stroke-width:1;stroke-linecap:round;stroke-linejoin:miter;stroke-miterlimit:4;stroke-dasharray:none;stroke-dashoffset:0;stroke-opacity:1"
       d="m 147.81807,134.6609 3.81282,9.50679"
       id="path907"
       inkscape:connector-curvature="0"
       sodipodi:nodetypes="cc" />
    <path
       style="display:inline;vector-effect:none;fill:none;fill-opacity:1;stroke:#ff0000;stroke-width:1;stroke-linecap:round;stroke-linejoin:miter;stroke-miterlimit:4;stroke-dasharray:none;stroke-dashoffset:0;stroke-opacity:1"
       d="m 183.66445,126.1213 -0.37314,9.75827"
       id="path907-6"
       inkscape:connector-curvature="0"
       sodipodi:nodetypes="cc" />
    <path
       sodipodi:nodetypes="cc"
       inkscape:connector-curvature="0"
       id="path909"
       d="m 221.35542,132.82802 -5.28857,7.29593"
       style="display:inline;opacity:1;vector-effect:none;fill:none;fill-opacity:1;stroke:#ff0000;stroke-width:1;stroke-linecap:round;stroke-linejoin:miter;stroke-miterlimit:4;stroke-dasharray:none;stroke-dashoffset:0;stroke-opacity:1" />
    <path
       style="display:inline;opacity:1;fill:none;fill-opacity:1;stroke:#ff0000;stroke-width:1;stroke-linecap:round;stroke-linejoin:miter;stroke-miterlimit:4;stroke-dasharray:none;stroke-dashoffset:0;stroke-opacity:1"
       d="m 146.21759,157.45758 -7.83696,8.25975"
       id="path912"
       inkscape:connector-curvature="0"
       sodipodi:nodetypes="cc" />
    <path
       style="display:inline;fill:none;fill-opacity:1;stroke:#ff0000;stroke-width:1;stroke-linecap:round;stroke-linejoin:miter;stroke-miterlimit:4;stroke-dasharray:none;stroke-dashoffset:0;stroke-opacity:1"
       d="m 168.39142,163.94905 4.48148,13.70961"
       id="path912-7"
       inkscape:connector-curvature="0"
       sodipodi:nodetypes="cc" />
    <path
       sodipodi:nodetypes="cc"
       inkscape:connector-curvature="0"
       id="path914"
       d="m 209.41837,149.01686 -0.78239,7.50847"
       style="display:inline;opacity:1;vector-effect:none;fill:none;fill-opacity:1;stroke:#ff0000;stroke-width:1;stroke-linecap:round;stroke-linejoin:miter;stroke-miterlimit:4;stroke-dasharray:none;stroke-dashoffset:0;stroke-opacity:1" />
    <path
       style="display:inline;opacity:1;vector-effect:none;fill:none;fill-opacity:1;stroke:#ff0000;stroke-width:1;stroke-linecap:round;stroke-linejoin:miter;stroke-miterlimit:4;stroke-dasharray:none;stroke-dashoffset:0;stroke-opacity:1"
       d="m 213.66305,163.55498 2.29695,9.50128"
       id="path916"
       inkscape:connector-curvature="0"
       sodipodi:nodetypes="cc" />
    <path
       style="display:inline;opacity:1;vector-effect:none;fill:none;fill-opacity:1;stroke:#ff0000;stroke-width:1;stroke-linecap:round;stroke-linejoin:miter;stroke-miterlimit:4;stroke-dasharray:none;stroke-dashoffset:0;stroke-opacity:1"
       d="m 255.9999,148.08239 0.0539,10.95259"
       id="path918"
       inkscape:connector-curvature="0"
       sodipodi:nodetypes="cc" />
    <text
       xml:space="preserve"
       style="font-style:normal;font-weight:normal;font-size:10.5833px;line-height:1.25;font-family:sans-serif;letter-spacing:0px;word-spacing:0px;display:inline;fill:#000000;fill-opacity:1;stroke:none;stroke-width:0.264583"
       x="320.6709"
       y="103.75063"
       id="text2229" />
    <path
       style="font-variation-settings:normal;opacity:0.655337;vector-effect:none;fill:#00ff00;fill-opacity:1;stroke:none;stroke-width:1.68969;stroke-linecap:butt;stroke-linejoin:miter;stroke-miterlimit:4;stroke-dasharray:none;stroke-dashoffset:0;stroke-opacity:1;-inkscape-stroke:none;filter:url(#filter2579);stop-color:#000000;stop-opacity:1"
       d="m 120.67582,111.6563 c 3.41388,0.13321 4.98532,4.7205 7.03504,7.45381 2.41396,3.21904 11.81228,13.8371 10.92421,17.76148 -0.51933,2.29494 7.421,11.04613 6.35028,14.21303 -1.21048,3.58028 -11.54511,1.43688 -14.17355,1.02765 -3.78221,-0.58885 -13.7727,-20.54382 -16.54683,-23.18126 -2.10209,-1.99852 -6.92755,-2.13268 -7.10181,-5.02794 -0.36522,-6.0679 7.4384,-12.48378 13.51266,-12.24677 z"
       id="path656"
       sodipodi:nodetypes="ssssssss" />
    <path
       style="font-variation-settings:normal;opacity:0.655337;mix-blend-mode:normal;vector-effect:none;fill:#ff6600;fill-opacity:1;stroke:none;stroke-width:1.68969;stroke-linecap:butt;stroke-linejoin:miter;stroke-miterlimit:4;stroke-dasharray:none;stroke-dashoffset:0;stroke-opacity:1;-inkscape-stroke:none;filter:url(#filter2579);stop-color:#000000;stop-opacity:1"
       d="m 141.89723,134.10179 c 3.03097,-7.49399 15.1945,-5.66157 23.07647,-7.45634 6.34106,-1.44389 12.83643,-2.31094 19.33194,-2.63071 10.20321,-0.50229 20.91928,-2.05457 30.62588,1.12974 4.55784,1.49523 8.71707,4.50287 11.90038,8.09121 1.18611,1.33702 2.98325,3.05139 2.46477,4.76184 -1.39783,4.61141 -8.01725,8.29651 -12.65473,6.98776 -1.54302,-0.43546 -1.16545,-3.12958 -2.37389,-4.18324 -2.5544,-2.22723 -6.09943,-3.21707 -9.44359,-3.76676 -6.35318,-1.04429 -12.8855,0.35235 -19.28745,1.03672 -6.49088,0.69388 -12.93563,1.8208 -19.33566,3.10636 -2.9199,0.58652 -5.92434,0.98074 -8.68457,2.09921 -2.92822,1.18654 -5.12313,5.67014 -8.16458,4.81463 -5.08683,-1.43084 -9.43628,-9.09169 -7.45497,-13.99042 z"
       id="path2480"
       sodipodi:nodetypes="ssssssssssssss" />
    <path
       id="path2784"
       style="font-variation-settings:normal;opacity:0.655337;fill:#0000ff;fill-opacity:1;stroke:none;stroke-width:1.68969;stroke-linecap:butt;stroke-linejoin:miter;stroke-miterlimit:4;stroke-dasharray:none;stroke-dashoffset:0;stroke-opacity:1;filter:url(#filter2579);stop-color:#000000;stop-opacity:1"
       d="m 199.565,146.03268 c -3.37942,-0.0349 -6.7208,0.22045 -9.90844,1.22732 -7.94024,2.50807 -12.93731,11.33049 -20.94497,13.61416 -4.21539,1.20216 -9.01979,1.20244 -13.14752,-0.27286 -3.6402,-1.30104 -5.25886,-6.99477 -9.12089,-7.16338 -2.72476,-0.11896 -11.80889,-0.97236 -14.39839,0.67224 -2.4083,1.52951 1.59306,5.46031 1.17646,7.96237 -0.69189,4.15548 4.54364,7.25898 7.77162,9.9658 2.31337,1.93989 5.14899,3.25878 8.00416,4.24005 8.15249,2.80185 16.85219,4.17806 25.46666,4.50102 14.32686,0.53712 29.02526,-0.30348 42.79584,-4.29328 3.93371,-1.13973 9.67585,-1.61961 10.98744,-5.4994 2.79632,-8.27175 -4.41035,-18.44429 -11.50627,-23.53242 -1.92274,-1.3787 -4.67595,-0.79742 -7.03937,-0.90692 -3.33929,-0.15471 -6.75691,-0.47976 -10.13633,-0.5147 z m 11.68042,11.78843 c 1.74388,0.01 3.16656,0.36689 3.33727,1.81333 0.42589,3.60861 -6.38137,3.91914 -9.98699,4.36976 -5.86486,0.73298 -14.4521,4.50052 -18.67121,2.96054 -0.83916,-0.30629 0.72081,-1.67458 1.33377,-2.32441 2.31359,-2.45274 5.28503,-4.41604 8.46511,-5.53661 3.24052,-1.14187 6.82465,-1.14823 10.25778,-1.01234 1.45533,0.0576 3.5204,-0.27998 5.26427,-0.27027 z"
       sodipodi:nodetypes="sssssssssssssssssssssss" />
    <path
       style="display:inline;opacity:1;vector-effect:none;fill:#ffffff;fill-opacity:1;fill-rule:evenodd;stroke:#000000;stroke-width:1;stroke-linecap:butt;stroke-linejoin:miter;stroke-miterlimit:4;stroke-dasharray:none;stroke-dashoffset:0;stroke-opacity:1"
       d="m 193.94992,173.43137 h 4.14268 c 1.03647,0 1.87089,0.83442 1.87089,1.87089 v 4.14267 c 0,1.03648 -0.83442,1.87089 -1.87089,1.87089 h -4.14268 c -1.03647,0 -1.87089,-0.83441 -1.87089,-1.87089 v -4.14267 c 0,-1.03647 0.83442,-1.87089 1.87089,-1.87089 z"
       id="rect920" />
    <text
       xml:space="preserve"
       style="font-size:6.98964px;line-height:1.25;font-family:'Titillium Web';-inkscape-font-specification:'Titillium Web';letter-spacing:0px;stroke-width:0.476565"
       x="193.9482"
       y="179.8149"
       id="text4024"><tspan
         sodipodi:role="line"
         id="tspan4022"
         style="stroke-width:0.476565"
         x="193.9482"
         y="179.8149">C</tspan></text>
    <path
       style="display:inline;opacity:1;vector-effect:none;fill:#ffffff;fill-opacity:1;fill-rule:evenodd;stroke:#000000;stroke-width:1;stroke-linecap:butt;stroke-linejoin:miter;stroke-miterlimit:4;stroke-dasharray:none;stroke-dashoffset:0;stroke-opacity:1"
       d="m 110.12381,130.04551 h 4.14268 c 1.03647,0 1.87089,0.83442 1.87089,1.87089 v 4.14267 c 0,1.03648 -0.83442,1.87089 -1.87089,1.87089 h -4.14268 c -1.03647,0 -1.87089,-0.83441 -1.87089,-1.87089 v -4.14267 c 0,-1.03647 0.83442,-1.87089 1.87089,-1.87089 z"
       id="path4026" />
    <text
       xml:space="preserve"
       style="font-size:6.98964px;line-height:1.25;font-family:'Titillium Web';-inkscape-font-specification:'Titillium Web';letter-spacing:0px;stroke-width:0.476565"
       x="110.12209"
       y="136.42903"
       id="text4030"><tspan
         sodipodi:role="line"
         id="tspan4028"
         style="stroke-width:0.476565"
         x="110.12209"
         y="136.42903">A</tspan></text>
    <path
       style="display:inline;fill:#ffffff;fill-opacity:1;fill-rule:evenodd;stroke:#000000;stroke-width:1;stroke-linecap:butt;stroke-linejoin:miter;stroke-miterlimit:4;stroke-dasharray:none;stroke-dashoffset:0;stroke-opacity:1"
       d="m 163.96859,121.67408 h 4.14268 c 1.03647,0 1.87089,0.83442 1.87089,1.87089 v 4.14267 c 0,1.03648 -0.83442,1.87089 -1.87089,1.87089 h -4.14268 c -1.03647,0 -1.87089,-0.83441 -1.87089,-1.87089 v -4.14267 c 0,-1.03647 0.83442,-1.87089 1.87089,-1.87089 z"
       id="path4026-6" />
    <text
       xml:space="preserve"
       style="font-size:6.98964px;line-height:1.25;font-family:'Titillium Web';-inkscape-font-specification:'Titillium Web';letter-spacing:0px;stroke-width:0.476565"
       x="163.96687"
       y="128.0576"
       id="text4030-1"><tspan
         sodipodi:role="line"
         id="tspan4028-8"
         style="stroke-width:0.476565"
         x="163.96687"
         y="128.0576">B</tspan></text>
    <path
       style="display:inline;opacity:1;vector-effect:none;fill:none;fill-opacity:1;stroke:#ff0000;stroke-width:1;stroke-linecap:round;stroke-linejoin:miter;stroke-miterlimit:4;stroke-dasharray:none;stroke-dashoffset:0;stroke-opacity:1"
       d="m 235.13154,148.08239 0.0539,10.95259"
       id="path4577"
       inkscape:connector-curvature="0"
       sodipodi:nodetypes="cc" />
    <path
       style="font-variation-settings:normal;opacity:0.655337;vector-effect:none;fill:#ffff00;fill-opacity:1;stroke:none;stroke-width:1.68969;stroke-linecap:butt;stroke-linejoin:miter;stroke-miterlimit:4;stroke-dasharray:none;stroke-dashoffset:0;stroke-opacity:1;-inkscape-stroke:none;filter:url(#filter2579);stop-color:#000000;stop-opacity:1"
       d="m 269.48055,144.97103 -8.52298,0.79993 -30.22096,-6.49938 -11.91723,7.03821 10.50374,22.93732 32.11247,-8.72059 7.90905,2.23224 z"
       id="path3675"
       sodipodi:nodetypes="cccccccc" />
    <path
       style="display:inline;fill:#ffffff;fill-opacity:1;fill-rule:evenodd;stroke:#000000;stroke-width:1;stroke-linecap:butt;stroke-linejoin:miter;stroke-miterlimit:4;stroke-dasharray:none;stroke-dashoffset:0;stroke-opacity:1"
       d="m 254.44434,135.58342 h 4.14268 c 1.03647,0 1.87089,0.83442 1.87089,1.87089 v 4.14267 c 0,1.03648 -0.83442,1.87089 -1.87089,1.87089 h -4.14268 c -1.03647,0 -1.87089,-0.83441 -1.87089,-1.87089 v -4.14267 c 0,-1.03647 0.83442,-1.87089 1.87089,-1.87089 z"
       id="path4026-6-7" />
    <text
       xml:space="preserve"
       style="font-size:6.98964px;line-height:1.25;font-family:'Titillium Web';-inkscape-font-specification:'Titillium Web';letter-spacing:0px;stroke-width:0.476565"
       x="254.44263"
       y="141.96693"
       id="text4030-1-9"><tspan
         sodipodi:role="line"
         id="tspan4028-8-2"
         style="stroke-width:0.476565"
         x="254.44263"
         y="141.96693">D</tspan></text>
  </g>
</svg>
